<svg id="Слой_1" data-name="Слой 1" xmlns="http://www.w3.org/2000/svg" xmlns:xlink="http://www.w3.org/1999/xlink" viewBox="0 0 1078.81 1005.85"><defs><style>.cls-1{fill:none;}.cls-2{fill:#1e1e1e;}.cls-3{clip-path:url(#clip-path);}.cls-4{fill:#59b283;}.cls-5{fill:#ffe966;}.cls-6{fill:#2d2d2d;}.cls-7,.cls-8,.cls-9{fill:#fff;}.cls-8{font-size:156.35px;}.cls-11,.cls-8,.cls-9{font-family:HelveticaNeueOTS, Helvetica Neue OTS;}.cls-9{font-size:138.98px;}.cls-10{letter-spacing:-0.09em;}.cls-11{font-size:347.44px;fill:#60bf7b;}</style><clipPath id="clip-path" transform="translate(-466.63 -48)"><circle class="cls-1" cx="976.5" cy="540.5" r="492.5"/></clipPath></defs><title>GO&amp;amp;Trip</title><path class="cls-2" d="M533.18,559.3s-6.43,19-14.14,24.3c0,0,8.14,3.8,15,0Z" transform="translate(-466.63 -48)"/><path class="cls-2" d="M533.18,559.3s6.42,19,14.13,24.3c0,0-8.13,3.8-15,0Z" transform="translate(-466.63 -48)"/><path class="cls-2" d="M533.16,565.6s-7.15,21.14-15.73,27c0,0,9.06,4.23,16.69,0Z" transform="translate(-466.63 -48)"/><path class="cls-2" d="M533.16,565.6s7.15,21.14,15.73,27c0,0-9,4.23-16.68,0Z" transform="translate(-466.63 -48)"/><g class="cls-3"><circle class="cls-4" cx="509.87" cy="492.5" r="492.5"/><circle class="cls-5" cx="452.3" cy="301.46" r="185.36"/><path class="cls-2" d="M1376,520.86s-6.45,19.06-14.19,24.4c0,0,8.17,3.81,15,0Z" transform="translate(-466.63 -48)"/><path class="cls-2" d="M1376,520.86s6.45,19.06,14.19,24.4c0,0-8.17,3.81-15.05,0Z" transform="translate(-466.63 -48)"/><path class="cls-6" d="M543.07,607.79S588.5,541.38,592,541.38s10.48,7,10.48,7L640.93,482l21,21s50.72-64.45,73.39-83.88c0,0,45.44-34.95,73.4-62.91,0,0,34.95,17.47,41.94,35,0,0,48.93-41.94,69.9-73.4s66.4-73.39,66.4-73.39,76.89,73.39,108.35,132.81c0,0,45.43-45.44,83.88-48.93,0,0,22.08,41,39.27,54.09a36.18,36.18,0,0,1,6.28,6.27c9.2,11.53,33.4,43,41.83,65.46l14-10.49,24.46,35L1322.46,468s41.94,34.95,104.85,160.77C1427.31,628.76,822.67,733.61,543.07,607.79Z" transform="translate(-466.63 -48)"/><path class="cls-7" d="M574.52,604.29s35-38.44,38.45-41.94l31.45-52.42,41.94,31.45-21,3.5,28,10.48-38.44,7,35,7-55.92,38.45,7-10.49-24.47,3.5,14-17.48S606,586.82,574.52,604.29Z" transform="translate(-466.63 -48)"/><path class="cls-7" d="M682.87,502.94s31.45-45.44,69.9-76.89,59.41-48.93,59.41-48.93l28,24.46-17.47-3.49,3.49,14-10.48-10.49L805.19,433l-7-17.48S756.26,454,752.77,471.48c0,0-7,0-3.5-14C749.27,457.5,717.82,471.48,682.87,502.94Z" transform="translate(-466.63 -48)"/><path class="cls-7" d="M693.35,607.79s45.44-34.95,62.91-55.92l-28,3.49s48.93-21,90.87-80.38c0,0-14,10.48-38.44,10.48,0,0,41.94-34.95,59.41-76.89a12.43,12.43,0,0,1,10.49,7s62.91-52.42,132.81-143.29c0,0-31.46,59.41-31.46,90.87,0,0-14,7-21,17.47,0,0,41.94-21,62.91-14,0,0-73.39,28-76.89,52.43l28-10.49s-41.94,48.93-45.43,69.9c0,0,52.42-14,55.92-7,0,0-38.45,21-41.94,31.46h28S910,527.4,899.56,548.37L917,544.88s-59.41,45.43,14,59.41c0,0-87.37,0-118.83,7l10.49-14s-48.93,21-94.37,10.49c0,0,10.49,0,21-17.48C749.27,590.31,731.8,604.29,693.35,607.79Z" transform="translate(-466.63 -48)"/><path class="cls-7" d="M1091.78,405.08s52.43-52.43,80.39-55.92c0,0,2.56,15.35,27.39,37.31a202.83,202.83,0,0,1,33.31,38.25c20.44,30.09,50,77.28,47.65,95.69,0,0-45.44-41.94-76.89,0,0,0-3.5-7,7-28,0,0-83.89,45.44-118.84,73.4,0,0,6.18-14.41,20.11-30.59a84,84,0,0,0,18.31-34.93c1.08-4.45,2.3-7.88,3.52-7.88l-10.48,10.49s-10.49-14,38.44-52.43c0,0-14-7-66.4,21,0,0,3.49-17.47,45.43-48.93,0,0-38.44,7-66.4,21,0,0,10.48-24.46,41.94-41.94Z" transform="translate(-466.63 -48)"/><path class="cls-7" d="M1287.51,485.46l14,17.48L1319,489s69.9,83.88,80.39,125.82l-48.93-38.45s-14-3.49-38.45,3.5c0,0,14-17.48,24.47-21l-62.91,7,41.94-28H1305Z" transform="translate(-466.63 -48)"/><path class="cls-2" d="M1375.84,525.43s-8.55,25.27-18.81,32.35c0,0,10.83,5.05,20,0Z" transform="translate(-466.63 -48)"/><path class="cls-2" d="M1375.84,525.43s8.55,25.27,18.81,32.35c0,0-10.83,5.05-20,0Z" transform="translate(-466.63 -48)"/><path class="cls-2" d="M1375.82,533.82s-9.52,28.13-20.94,36c0,0,12.06,5.63,22.21,0Z" transform="translate(-466.63 -48)"/><path class="cls-2" d="M1375.82,533.82s9.52,28.13,20.94,36c0,0-12.06,5.63-22.21,0Z" transform="translate(-466.63 -48)"/><path class="cls-2" d="M1376.81,540.68s-11.24,33.21-24.72,42.51c0,0,14.23,6.64,26.22,0Z" transform="translate(-466.63 -48)"/><path class="cls-2" d="M1376.81,540.68s11.24,33.21,24.72,42.51c0,0-14.23,6.64-26.22,0Z" transform="translate(-466.63 -48)"/><path class="cls-2" d="M1394.84,605s-11.87,35.06-26.1,44.88c0,0,15,7,27.68,0Z" transform="translate(-466.63 -48)"/><path class="cls-2" d="M1394.84,605s11.86,35.06,26.09,44.88c0,0-15,7-27.67,0Z" transform="translate(-466.63 -48)"/><path class="cls-2" d="M1421.28,552.6s-4.84,14.32-10.66,18.33c0,0,6.14,2.87,11.31,0Z" transform="translate(-466.63 -48)"/><path class="cls-2" d="M1421.28,552.6s4.85,14.32,10.66,18.33c0,0-6.14,2.87-11.3,0Z" transform="translate(-466.63 -48)"/><path class="cls-2" d="M1421.2,556s-6.42,19-14.13,24.3c0,0,8.13,3.8,15,0Z" transform="translate(-466.63 -48)"/><path class="cls-2" d="M1421.2,556s6.43,19,14.14,24.3c0,0-8.14,3.8-15,0Z" transform="translate(-466.63 -48)"/><path class="cls-2" d="M1421.18,562.34s-7.15,21.13-15.73,27c0,0,9.06,4.23,16.69,0Z" transform="translate(-466.63 -48)"/><path class="cls-2" d="M1421.18,562.34s7.15,21.13,15.74,27c0,0-9.06,4.23-16.69,0Z" transform="translate(-466.63 -48)"/><path class="cls-2" d="M1421.93,567.49s-8.45,25-18.58,32c0,0,10.7,5,19.7,0Z" transform="translate(-466.63 -48)"/><path class="cls-2" d="M1421.93,567.49s8.44,25,18.57,32c0,0-10.69,5-19.7,0Z" transform="translate(-466.63 -48)"/><path class="cls-2" d="M1421.42,574.37s-9.55,28.25-21,36.16c0,0,12.1,5.65,22.3,0Z" transform="translate(-466.63 -48)"/><path class="cls-2" d="M1421.42,574.37s9.56,28.25,21,36.16c0,0-12.1,5.65-22.3,0Z" transform="translate(-466.63 -48)"/><path class="cls-2" d="M1422.12,580.67s-10.84,32-23.84,41c0,0,13.73,6.41,25.28,0Z" transform="translate(-466.63 -48)"/><path class="cls-2" d="M1422.12,580.67s10.83,32,23.83,41c0,0-13.72,6.41-25.28,0Z" transform="translate(-466.63 -48)"/><path class="cls-2" d="M1422.68,587s-12.24,36.18-26.93,46.31c0,0,15.51,7.23,28.56,0Z" transform="translate(-466.63 -48)"/><path class="cls-2" d="M1422.68,587s12.24,36.18,26.93,46.31c0,0-15.51,7.23-28.56,0Z" transform="translate(-466.63 -48)"/><path class="cls-2" d="M1422.87,596.14s-13.86,41-30.5,52.44c0,0,17.56,8.19,32.35,0Z" transform="translate(-466.63 -48)"/><path class="cls-2" d="M1422.87,596.14s13.86,41,30.5,52.44c0,0-17.56,8.19-32.35,0Z" transform="translate(-466.63 -48)"/><path class="cls-2" d="M1392.37,648.56s30.4,12.6,60.8,0Z" transform="translate(-466.63 -48)"/><path class="cls-2" d="M976,522.6s-4.51,19.06-9.92,24.39c0,0,5.71,3.82,10.52,0Z" transform="translate(-466.63 -48)"/><path class="cls-2" d="M976,522.6s4.51,19.06,9.93,24.39c0,0-5.72,3.82-10.53,0Z" transform="translate(-466.63 -48)"/><path class="cls-2" d="M975.9,527.17s-6,25.27-13.16,32.34c0,0,7.58,5.06,14,0Z" transform="translate(-466.63 -48)"/><path class="cls-2" d="M975.9,527.17s6,25.27,13.15,32.34c0,0-7.57,5.06-13.95,0Z" transform="translate(-466.63 -48)"/><path class="cls-2" d="M975.88,535.56s-6.65,28.12-14.64,36c0,0,8.43,5.62,15.53,0Z" transform="translate(-466.63 -48)"/><path class="cls-2" d="M975.88,535.56s6.66,28.12,14.64,36c0,0-8.43,5.62-15.53,0Z" transform="translate(-466.63 -48)"/><path class="cls-2" d="M976.57,542.42s-7.86,33.21-17.29,42.51c0,0,10,6.64,18.34,0Z" transform="translate(-466.63 -48)"/><path class="cls-2" d="M976.57,542.42s7.86,33.21,17.29,42.51c0,0-10,6.64-18.33,0Z" transform="translate(-466.63 -48)"/><path class="cls-2" d="M976.11,551.57s-8.9,37.59-19.58,48.12c0,0,11.27,7.52,20.76,0Z" transform="translate(-466.63 -48)"/><path class="cls-2" d="M976.11,551.57s8.89,37.59,19.57,48.12c0,0-11.27,7.52-20.76,0Z" transform="translate(-466.63 -48)"/><path class="cls-2" d="M976.75,560s-10.08,42.61-22.18,54.54c0,0,12.77,8.52,23.52,0Z" transform="translate(-466.63 -48)"/><path class="cls-2" d="M976.75,560s10.08,42.61,22.18,54.54c0,0-12.77,8.52-23.52,0Z" transform="translate(-466.63 -48)"/><path class="cls-2" d="M977.27,568.34S965.88,616.48,952.21,630c0,0,14.43,9.63,26.58,0Z" transform="translate(-466.63 -48)"/><path class="cls-2" d="M977.27,568.34s11.4,48.14,25.07,61.62c0,0-14.43,9.63-26.59,0Z" transform="translate(-466.63 -48)"/><path class="cls-2" d="M977.45,580.54s-12.9,54.52-28.38,69.78c0,0,16.34,10.9,30.1,0Z" transform="translate(-466.63 -48)"/><path class="cls-2" d="M977.45,580.54s12.9,54.52,28.38,69.78c0,0-16.34,10.9-30.1,0Z" transform="translate(-466.63 -48)"/><path class="cls-2" d="M949.07,650.3s28.29,16.77,56.58,0Z" transform="translate(-466.63 -48)"/><path class="cls-2" d="M1161.36,523.36s-6.45,19.06-14.19,24.4c0,0,8.17,3.81,15,0Z" transform="translate(-466.63 -48)"/><path class="cls-2" d="M1161.36,523.36s6.45,19.06,14.19,24.4c0,0-8.17,3.81-15,0Z" transform="translate(-466.63 -48)"/><path class="cls-2" d="M1161.25,527.93s-8.55,25.27-18.81,32.35c0,0,10.83,5.05,20,0Z" transform="translate(-466.63 -48)"/><path class="cls-2" d="M1161.25,527.93s8.55,25.27,18.81,32.35c0,0-10.83,5.05-20,0Z" transform="translate(-466.63 -48)"/><path class="cls-2" d="M1161.23,536.32s-9.52,28.13-20.94,36c0,0,12.06,5.63,22.21,0Z" transform="translate(-466.63 -48)"/><path class="cls-2" d="M1161.23,536.32s9.52,28.13,20.94,36c0,0-12.06,5.63-22.21,0Z" transform="translate(-466.63 -48)"/><path class="cls-2" d="M1162.22,543.18s-11.24,33.21-24.72,42.51c0,0,14.23,6.64,26.22,0Z" transform="translate(-466.63 -48)"/><path class="cls-2" d="M1162.22,543.18s11.24,33.21,24.72,42.51c0,0-14.23,6.64-26.22,0Z" transform="translate(-466.63 -48)"/><path class="cls-2" d="M1161.55,552.33s-12.72,37.59-28,48.12c0,0,16.11,7.52,29.68,0Z" transform="translate(-466.63 -48)"/><path class="cls-2" d="M1161.55,552.33s12.72,37.59,28,48.12c0,0-16.11,7.52-29.68,0Z" transform="translate(-466.63 -48)"/><path class="cls-2" d="M1162.47,560.72s-14.41,42.6-31.71,54.53c0,0,18.26,8.52,33.63,0Z" transform="translate(-466.63 -48)"/><path class="cls-2" d="M1162.47,560.72s14.42,42.6,31.72,54.53c0,0-18.26,8.52-33.64,0Z" transform="translate(-466.63 -48)"/><path class="cls-2" d="M1163.22,569.1s-16.29,48.14-35.83,61.62c0,0,20.63,9.63,38,0Z" transform="translate(-466.63 -48)"/><path class="cls-2" d="M1163.22,569.1s16.29,48.14,35.83,61.62c0,0-20.63,9.63-38,0Z" transform="translate(-466.63 -48)"/><path class="cls-2" d="M1163.47,581.3s-18.44,54.52-40.58,69.78c0,0,23.37,10.91,43,0Z" transform="translate(-466.63 -48)"/><path class="cls-2" d="M1163.47,581.3s18.45,54.52,40.59,69.78c0,0-23.37,10.91-43,0Z" transform="translate(-466.63 -48)"/><path class="cls-2" d="M1122.89,651.06s40.45,16.77,80.91,0Z" transform="translate(-466.63 -48)"/><path class="cls-2" d="M1210.92,522.6s-6.45,19.06-14.19,24.39c0,0,8.17,3.82,15,0Z" transform="translate(-466.63 -48)"/><path class="cls-2" d="M1210.92,522.6s6.44,19.06,14.18,24.39c0,0-8.16,3.82-15,0Z" transform="translate(-466.63 -48)"/><path class="cls-2" d="M1210.81,527.17s-8.55,25.27-18.81,32.34c0,0,10.83,5.06,20,0Z" transform="translate(-466.63 -48)"/><path class="cls-2" d="M1210.81,527.17s8.55,25.27,18.81,32.34c0,0-10.83,5.06-19.95,0Z" transform="translate(-466.63 -48)"/><path class="cls-2" d="M1210.79,535.56s-9.52,28.12-20.94,36c0,0,12.05,5.62,22.2,0Z" transform="translate(-466.63 -48)"/><path class="cls-2" d="M1210.79,535.56s9.51,28.12,20.93,36c0,0-12,5.62-22.2,0Z" transform="translate(-466.63 -48)"/><path class="cls-2" d="M1211.78,542.42s-11.24,33.21-24.73,42.51c0,0,14.24,6.64,26.22,0Z" transform="translate(-466.63 -48)"/><path class="cls-2" d="M1211.78,542.42s11.23,33.21,24.72,42.51c0,0-14.24,6.64-26.22,0Z" transform="translate(-466.63 -48)"/><path class="cls-2" d="M1211.11,551.57s-12.72,37.59-28,48.12c0,0,16.11,7.52,29.68,0Z" transform="translate(-466.63 -48)"/><path class="cls-2" d="M1211.11,551.57s12.72,37.59,28,48.12c0,0-16.11,7.52-29.68,0Z" transform="translate(-466.63 -48)"/><path class="cls-2" d="M1212,560s-14.42,42.61-31.72,54.54c0,0,18.26,8.52,33.64,0Z" transform="translate(-466.63 -48)"/><path class="cls-2" d="M1212,560s14.41,42.61,31.71,54.54c0,0-18.26,8.52-33.63,0Z" transform="translate(-466.63 -48)"/><path class="cls-2" d="M1212.78,568.34s-16.29,48.14-35.84,61.62c0,0,20.63,9.63,38,0Z" transform="translate(-466.63 -48)"/><path class="cls-2" d="M1212.78,568.34s16.28,48.14,35.83,61.62c0,0-20.63,9.63-38,0Z" transform="translate(-466.63 -48)"/><path class="cls-2" d="M1213,580.54s-18.45,54.52-40.58,69.78c0,0,23.36,10.9,43,0Z" transform="translate(-466.63 -48)"/><path class="cls-2" d="M1213,580.54s18.45,54.52,40.58,69.78c0,0-23.36,10.9-43,0Z" transform="translate(-466.63 -48)"/><path class="cls-2" d="M1172.45,650.3s40.45,16.77,80.9,0Z" transform="translate(-466.63 -48)"/><path class="cls-2" d="M1050.81,518.78s-6.44,19.06-14.18,24.4c0,0,8.17,3.81,15,0Z" transform="translate(-466.63 -48)"/><path class="cls-2" d="M1050.81,518.78s6.45,19.06,14.19,24.4c0,0-8.17,3.81-15,0Z" transform="translate(-466.63 -48)"/><path class="cls-2" d="M1050.71,523.36s-8.55,25.27-18.81,32.34c0,0,10.83,5.06,19.95,0Z" transform="translate(-466.63 -48)"/><path class="cls-2" d="M1050.71,523.36s8.55,25.27,18.81,32.34c0,0-10.83,5.06-20,0Z" transform="translate(-466.63 -48)"/><path class="cls-2" d="M1050.68,531.75s-9.51,28.12-20.93,36c0,0,12,5.62,22.2,0Z" transform="translate(-466.63 -48)"/><path class="cls-2" d="M1050.68,531.75s9.52,28.12,20.94,36c0,0-12,5.62-22.21,0Z" transform="translate(-466.63 -48)"/><path class="cls-2" d="M1051.67,538.61s-11.23,33.21-24.72,42.51c0,0,14.24,6.64,26.22,0Z" transform="translate(-466.63 -48)"/><path class="cls-2" d="M1051.67,538.61s11.24,33.21,24.73,42.51c0,0-14.24,6.64-26.22,0Z" transform="translate(-466.63 -48)"/><path class="cls-2" d="M1051,547.76s-12.72,37.59-28,48.12c0,0,16.11,7.51,29.68,0Z" transform="translate(-466.63 -48)"/><path class="cls-2" d="M1051,547.76s12.72,37.59,28,48.12c0,0-16.11,7.51-29.68,0Z" transform="translate(-466.63 -48)"/><path class="cls-2" d="M1051.93,556.14s-14.42,42.61-31.72,54.54c0,0,18.26,8.52,33.64,0Z" transform="translate(-466.63 -48)"/><path class="cls-2" d="M1051.93,556.14s14.41,42.61,31.71,54.54c0,0-18.26,8.52-33.64,0Z" transform="translate(-466.63 -48)"/><path class="cls-2" d="M1052.67,564.53s-16.28,48.14-35.83,61.62c0,0,20.63,9.62,38,0Z" transform="translate(-466.63 -48)"/><path class="cls-2" d="M1052.67,564.53s16.29,48.14,35.84,61.62c0,0-20.63,9.62-38,0Z" transform="translate(-466.63 -48)"/><path class="cls-2" d="M1052.93,576.73s-18.45,54.51-40.59,69.78c0,0,23.37,10.9,43.05,0Z" transform="translate(-466.63 -48)"/><path class="cls-2" d="M1052.93,576.73s18.44,54.51,40.58,69.78c0,0-23.37,10.9-43,0Z" transform="translate(-466.63 -48)"/><path class="cls-2" d="M1012.34,646.49s40.46,16.77,80.91,0Z" transform="translate(-466.63 -48)"/><path class="cls-2" d="M1014.33,556.9s-4.93,14.59-10.85,18.67c0,0,6.25,2.92,11.51,0Z" transform="translate(-466.63 -48)"/><path class="cls-2" d="M1014.33,556.9s4.94,14.59,10.86,18.67c0,0-6.25,2.92-11.51,0Z" transform="translate(-466.63 -48)"/><path class="cls-2" d="M1014.25,560.4s-6.54,19.34-14.39,24.75c0,0,8.29,3.87,15.26,0Z" transform="translate(-466.63 -48)"/><path class="cls-2" d="M1014.25,560.4s6.54,19.34,14.39,24.75c0,0-8.28,3.87-15.26,0Z" transform="translate(-466.63 -48)"/><path class="cls-2" d="M1014.23,566.82s-7.28,21.52-16,27.55c0,0,9.23,4.3,17,0Z" transform="translate(-466.63 -48)"/><path class="cls-2" d="M1014.23,566.82s7.29,21.52,16,27.55c0,0-9.22,4.3-17,0Z" transform="translate(-466.63 -48)"/><path class="cls-2" d="M1015,572.07s-8.6,25.41-18.91,32.53c0,0,10.89,5.08,20.06,0Z" transform="translate(-466.63 -48)"/><path class="cls-2" d="M1015,572.07s8.6,25.41,18.92,32.53c0,0-10.89,5.08-20.06,0Z" transform="translate(-466.63 -48)"/><path class="cls-2" d="M1014.48,579.07s-9.73,28.77-21.41,36.82c0,0,12.33,5.75,22.71,0Z" transform="translate(-466.63 -48)"/><path class="cls-2" d="M1014.48,579.07s9.73,28.77,21.41,36.82c0,0-12.33,5.75-22.71,0Z" transform="translate(-466.63 -48)"/><path class="cls-2" d="M1015.19,585.49s-11,32.6-24.27,41.73c0,0,14,6.52,25.74,0Z" transform="translate(-466.63 -48)"/><path class="cls-2" d="M1015.19,585.49s11,32.6,24.26,41.73c0,0-14,6.52-25.74,0Z" transform="translate(-466.63 -48)"/><path class="cls-2" d="M1015.76,591.91s-12.47,36.83-27.42,47.14c0,0,15.78,7.37,29.08,0Z" transform="translate(-466.63 -48)"/><path class="cls-2" d="M1015.76,591.91s12.46,36.83,27.42,47.14c0,0-15.79,7.37-29.08,0Z" transform="translate(-466.63 -48)"/><path class="cls-2" d="M1016,601.24s-14.11,41.72-31.05,53.4c0,0,17.88,8.34,32.93,0Z" transform="translate(-466.63 -48)"/><path class="cls-2" d="M1016,601.24s14.12,41.72,31,53.4c0,0-17.87,8.34-32.93,0Z" transform="translate(-466.63 -48)"/><path class="cls-2" d="M984.9,654.62s31,12.83,61.91,0Z" transform="translate(-466.63 -48)"/><path class="cls-2" d="M1087.4,570.25s-4.15,12.26-9.12,15.69c0,0,5.25,2.45,9.67,0Z" transform="translate(-466.63 -48)"/><path class="cls-2" d="M1087.4,570.25s4.15,12.26,9.12,15.69c0,0-5.25,2.45-9.67,0Z" transform="translate(-466.63 -48)"/><path class="cls-2" d="M1087.33,573.19s-5.5,16.25-12.09,20.8c0,0,7,3.25,12.82,0Z" transform="translate(-466.63 -48)"/><path class="cls-2" d="M1087.33,573.19s5.5,16.25,12.1,20.8c0,0-7,3.25-12.83,0Z" transform="translate(-466.63 -48)"/><path class="cls-2" d="M1087.32,578.59s-6.12,18.08-13.47,23.15c0,0,7.76,3.61,14.28,0Z" transform="translate(-466.63 -48)"/><path class="cls-2" d="M1087.32,578.59s6.12,18.08,13.46,23.15c0,0-7.75,3.61-14.28,0Z" transform="translate(-466.63 -48)"/><path class="cls-2" d="M1088,583s-7.22,21.35-15.89,27.33c0,0,9.15,4.27,16.86,0Z" transform="translate(-466.63 -48)"/><path class="cls-2" d="M1088,583s7.23,21.35,15.9,27.33c0,0-9.15,4.27-16.86,0Z" transform="translate(-466.63 -48)"/><path class="cls-2" d="M1087.52,588.88s-8.18,24.18-18,30.94c0,0,10.36,4.84,19.08,0Z" transform="translate(-466.63 -48)"/><path class="cls-2" d="M1087.52,588.88s8.18,24.18,18,30.94c0,0-10.36,4.84-19.09,0Z" transform="translate(-466.63 -48)"/><path class="cls-2" d="M1088.12,594.27s-9.27,27.4-20.4,35.07c0,0,11.74,5.48,21.63,0Z" transform="translate(-466.63 -48)"/><path class="cls-2" d="M1088.12,594.27s9.27,27.4,20.39,35.07c0,0-11.74,5.48-21.63,0Z" transform="translate(-466.63 -48)"/><path class="cls-2" d="M1088.6,599.67s-10.48,31-23,39.62c0,0,13.27,6.19,24.44,0Z" transform="translate(-466.63 -48)"/><path class="cls-2" d="M1088.6,599.67s10.47,31,23,39.62c0,0-13.27,6.19-24.44,0Z" transform="translate(-466.63 -48)"/><path class="cls-2" d="M1088.76,607.51s-11.86,35.06-26.1,44.88c0,0,15,7,27.68,0Z" transform="translate(-466.63 -48)"/><path class="cls-2" d="M1088.76,607.51s11.86,35.06,26.1,44.88c0,0-15,7-27.68,0Z" transform="translate(-466.63 -48)"/><path class="cls-2" d="M1062.66,652.37s26,10.79,52,0Z" transform="translate(-466.63 -48)"/><path class="cls-2" d="M1115.2,555.11s-4.84,14.32-10.66,18.33c0,0,6.14,2.86,11.31,0Z" transform="translate(-466.63 -48)"/><path class="cls-2" d="M1115.2,555.11s4.85,14.32,10.67,18.33c0,0-6.14,2.86-11.31,0Z" transform="translate(-466.63 -48)"/><path class="cls-2" d="M1115.12,558.54s-6.42,19-14.13,24.31c0,0,8.14,3.8,15,0Z" transform="translate(-466.63 -48)"/><path class="cls-2" d="M1115.12,558.54s6.43,19,14.14,24.31c0,0-8.14,3.8-15,0Z" transform="translate(-466.63 -48)"/><path class="cls-2" d="M1115.11,564.85s-7.15,21.13-15.74,27c0,0,9.06,4.23,16.69,0Z" transform="translate(-466.63 -48)"/><path class="cls-2" d="M1115.11,564.85s7.15,21.13,15.73,27c0,0-9.06,4.23-16.69,0Z" transform="translate(-466.63 -48)"/><path class="cls-2" d="M1115.85,570s-8.44,25-18.58,31.94c0,0,10.7,5,19.71,0Z" transform="translate(-466.63 -48)"/><path class="cls-2" d="M1115.85,570s8.44,25,18.58,31.94c0,0-10.7,5-19.71,0Z" transform="translate(-466.63 -48)"/><path class="cls-2" d="M1115.35,576.88s-9.56,28.25-21,36.16c0,0,12.11,5.65,22.3,0Z" transform="translate(-466.63 -48)"/><path class="cls-2" d="M1115.35,576.88s9.56,28.25,21,36.16c0,0-12.11,5.65-22.31,0Z" transform="translate(-466.63 -48)"/><path class="cls-2" d="M1116,583.18s-10.83,32-23.83,41c0,0,13.72,6.4,25.27,0Z" transform="translate(-466.63 -48)"/><path class="cls-2" d="M1116,583.18s10.83,32,23.83,41c0,0-13.72,6.4-25.27,0Z" transform="translate(-466.63 -48)"/><path class="cls-2" d="M1116.6,589.48s-12.24,36.17-26.93,46.3c0,0,15.51,7.24,28.56,0Z" transform="translate(-466.63 -48)"/><path class="cls-2" d="M1116.6,589.48s12.24,36.17,26.93,46.3c0,0-15.5,7.24-28.56,0Z" transform="translate(-466.63 -48)"/><path class="cls-2" d="M1116.79,598.65s-13.86,41-30.49,52.43c0,0,17.55,8.2,32.34,0Z" transform="translate(-466.63 -48)"/><path class="cls-2" d="M1116.79,598.65s13.86,41,30.5,52.43c0,0-17.56,8.2-32.35,0Z" transform="translate(-466.63 -48)"/><path class="cls-2" d="M1086.3,651.07s30.39,12.6,60.79,0Z" transform="translate(-466.63 -48)"/><path class="cls-2" d="M1229.8,606.74s-11.86,35.06-26.1,44.88c0,0,15,7,27.68,0Z" transform="translate(-466.63 -48)"/><path class="cls-2" d="M1229.8,606.74s11.86,35.06,26.1,44.88c0,0-15,7-27.68,0Z" transform="translate(-466.63 -48)"/><path class="cls-2" d="M1256.25,554.34s-4.85,14.32-10.67,18.33c0,0,6.14,2.86,11.31,0Z" transform="translate(-466.63 -48)"/><path class="cls-2" d="M1256.25,554.34s4.84,14.32,10.66,18.33c0,0-6.14,2.86-11.31,0Z" transform="translate(-466.63 -48)"/><path class="cls-2" d="M1256.17,557.77s-6.43,19-14.14,24.31c0,0,8.14,3.8,15,0Z" transform="translate(-466.63 -48)"/><path class="cls-2" d="M1256.17,557.77s6.42,19,14.13,24.31c0,0-8.14,3.8-15,0Z" transform="translate(-466.63 -48)"/><path class="cls-2" d="M1256.15,564.08s-7.15,21.13-15.73,27c0,0,9,4.23,16.68,0Z" transform="translate(-466.63 -48)"/><path class="cls-2" d="M1256.15,564.08s7.15,21.13,15.73,27c0,0-9.06,4.23-16.69,0Z" transform="translate(-466.63 -48)"/><path class="cls-2" d="M1256.89,569.23s-8.44,25-18.57,31.95c0,0,10.69,5,19.7,0Z" transform="translate(-466.63 -48)"/><path class="cls-2" d="M1256.89,569.23s8.45,25,18.58,31.95c0,0-10.7,5-19.7,0Z" transform="translate(-466.63 -48)"/><path class="cls-2" d="M1256.39,576.11s-9.56,28.25-21,36.16c0,0,12.11,5.65,22.3,0Z" transform="translate(-466.63 -48)"/><path class="cls-2" d="M1256.39,576.11s9.56,28.25,21,36.16c0,0-12.11,5.65-22.31,0Z" transform="translate(-466.63 -48)"/><path class="cls-2" d="M1257.08,582.41s-10.83,32-23.83,41c0,0,13.72,6.4,25.28,0Z" transform="translate(-466.63 -48)"/><path class="cls-2" d="M1257.08,582.41s10.83,32,23.83,41c0,0-13.72,6.4-25.27,0Z" transform="translate(-466.63 -48)"/><path class="cls-2" d="M1257.64,588.71s-12.24,36.17-26.92,46.3c0,0,15.5,7.24,28.56,0Z" transform="translate(-466.63 -48)"/><path class="cls-2" d="M1257.64,588.71s12.24,36.17,26.93,46.3c0,0-15.5,7.24-28.56,0Z" transform="translate(-466.63 -48)"/><path class="cls-2" d="M1257.83,597.88s-13.86,41-30.49,52.44c0,0,17.56,8.19,32.34,0Z" transform="translate(-466.63 -48)"/><path class="cls-2" d="M1257.83,597.88s13.87,41,30.5,52.44c0,0-17.56,8.19-32.34,0Z" transform="translate(-466.63 -48)"/><path class="cls-2" d="M1227.34,650.3s30.4,12.6,60.8,0Z" transform="translate(-466.63 -48)"/><path class="cls-2" d="M666.44,524.12s-4.51,19.06-9.92,24.4c0,0,5.71,3.81,10.52,0Z" transform="translate(-466.63 -48)"/><path class="cls-2" d="M666.44,524.12s4.51,19.06,9.93,24.4c0,0-5.72,3.81-10.53,0Z" transform="translate(-466.63 -48)"/><path class="cls-2" d="M666.37,528.7s-6,25.26-13.16,32.34c0,0,7.58,5.05,13.95,0Z" transform="translate(-466.63 -48)"/><path class="cls-2" d="M666.37,528.7s6,25.26,13.15,32.34c0,0-7.57,5.05-13.95,0Z" transform="translate(-466.63 -48)"/><path class="cls-2" d="M666.35,537.08s-6.65,28.13-14.64,36c0,0,8.43,5.63,15.53,0Z" transform="translate(-466.63 -48)"/><path class="cls-2" d="M666.35,537.08s6.66,28.13,14.64,36c0,0-8.43,5.63-15.53,0Z" transform="translate(-466.63 -48)"/><path class="cls-2" d="M667,543.94s-7.86,33.21-17.29,42.51c0,0,10,6.64,18.34,0Z" transform="translate(-466.63 -48)"/><path class="cls-2" d="M667,543.94s7.86,33.21,17.29,42.51c0,0-10,6.64-18.33,0Z" transform="translate(-466.63 -48)"/><path class="cls-2" d="M666.58,553.09s-8.9,37.6-19.58,48.12c0,0,11.27,7.52,20.76,0Z" transform="translate(-466.63 -48)"/><path class="cls-2" d="M666.58,553.09s8.89,37.6,19.57,48.12c0,0-11.27,7.52-20.76,0Z" transform="translate(-466.63 -48)"/><path class="cls-2" d="M667.22,561.48S657.14,604.08,645,616c0,0,12.77,8.53,23.52,0Z" transform="translate(-466.63 -48)"/><path class="cls-2" d="M667.22,561.48S677.3,604.08,689.4,616c0,0-12.77,8.53-23.52,0Z" transform="translate(-466.63 -48)"/><path class="cls-2" d="M667.74,569.86S656.35,618,642.68,631.48c0,0,14.43,9.63,26.58,0Z" transform="translate(-466.63 -48)"/><path class="cls-2" d="M667.74,569.86s11.4,48.14,25.07,61.62c0,0-14.43,9.63-26.59,0Z" transform="translate(-466.63 -48)"/><path class="cls-2" d="M667.92,582.06s-12.9,54.52-28.38,69.79c0,0,16.34,10.9,30.1,0Z" transform="translate(-466.63 -48)"/><path class="cls-2" d="M667.92,582.06s12.9,54.52,28.38,69.79c0,0-16.34,10.9-30.1,0Z" transform="translate(-466.63 -48)"/><path class="cls-2" d="M639.54,651.82s28.29,16.77,56.58,0Z" transform="translate(-466.63 -48)"/><path class="cls-2" d="M851.83,524.88s-6.45,19.06-14.19,24.4c0,0,8.17,3.81,15.05,0Z" transform="translate(-466.63 -48)"/><path class="cls-2" d="M851.83,524.88s6.45,19.06,14.19,24.4c0,0-8.17,3.81-15,0Z" transform="translate(-466.63 -48)"/><path class="cls-2" d="M851.72,529.46s-8.55,25.27-18.81,32.34c0,0,10.83,5.06,20,0Z" transform="translate(-466.63 -48)"/><path class="cls-2" d="M851.72,529.46s8.55,25.27,18.81,32.34c0,0-10.83,5.06-19.95,0Z" transform="translate(-466.63 -48)"/><path class="cls-2" d="M851.7,537.84s-9.52,28.13-20.94,36c0,0,12.06,5.62,22.21,0Z" transform="translate(-466.63 -48)"/><path class="cls-2" d="M851.7,537.84s9.52,28.13,20.94,36c0,0-12.06,5.62-22.21,0Z" transform="translate(-466.63 -48)"/><path class="cls-2" d="M852.69,544.71S841.45,577.92,828,587.22c0,0,14.23,6.64,26.22,0Z" transform="translate(-466.63 -48)"/><path class="cls-2" d="M852.69,544.71s11.24,33.21,24.72,42.51c0,0-14.23,6.64-26.22,0Z" transform="translate(-466.63 -48)"/><path class="cls-2" d="M852,553.85S839.3,591.45,824,602c0,0,16.11,7.52,29.68,0Z" transform="translate(-466.63 -48)"/><path class="cls-2" d="M852,553.85s12.72,37.6,28,48.12c0,0-16.11,7.52-29.68,0Z" transform="translate(-466.63 -48)"/><path class="cls-2" d="M852.94,562.24s-14.41,42.61-31.71,54.54c0,0,18.26,8.52,33.63,0Z" transform="translate(-466.63 -48)"/><path class="cls-2" d="M852.94,562.24s14.42,42.61,31.72,54.54c0,0-18.26,8.52-33.64,0Z" transform="translate(-466.63 -48)"/><path class="cls-2" d="M853.69,570.63s-16.29,48.14-35.83,61.61c0,0,20.63,9.63,38,0Z" transform="translate(-466.63 -48)"/><path class="cls-2" d="M853.69,570.63s16.29,48.14,35.83,61.61c0,0-20.63,9.63-38,0Z" transform="translate(-466.63 -48)"/><path class="cls-2" d="M853.94,582.83s-18.44,54.51-40.58,69.78c0,0,23.37,10.9,43,0Z" transform="translate(-466.63 -48)"/><path class="cls-2" d="M853.94,582.83s18.45,54.51,40.59,69.78c0,0-23.37,10.9-43,0Z" transform="translate(-466.63 -48)"/><path class="cls-2" d="M813.36,652.58s40.45,16.78,80.91,0Z" transform="translate(-466.63 -48)"/><path class="cls-2" d="M901.39,524.12s-6.45,19.06-14.19,24.4c0,0,8.17,3.81,15,0Z" transform="translate(-466.63 -48)"/><path class="cls-2" d="M901.39,524.12s6.44,19.06,14.18,24.4c0,0-8.17,3.81-15,0Z" transform="translate(-466.63 -48)"/><path class="cls-2" d="M901.28,528.7S892.73,554,882.47,561c0,0,10.83,5.05,19.95,0Z" transform="translate(-466.63 -48)"/><path class="cls-2" d="M901.28,528.7S909.83,554,920.09,561c0,0-10.83,5.05-20,0Z" transform="translate(-466.63 -48)"/><path class="cls-2" d="M901.26,537.08s-9.52,28.13-20.94,36c0,0,12,5.63,22.2,0Z" transform="translate(-466.63 -48)"/><path class="cls-2" d="M901.26,537.08s9.51,28.13,20.93,36c0,0-12.05,5.63-22.2,0Z" transform="translate(-466.63 -48)"/><path class="cls-2" d="M902.25,543.94S891,577.15,877.52,586.45c0,0,14.24,6.64,26.22,0Z" transform="translate(-466.63 -48)"/><path class="cls-2" d="M902.25,543.94s11.23,33.21,24.72,42.51c0,0-14.24,6.64-26.22,0Z" transform="translate(-466.63 -48)"/><path class="cls-2" d="M901.58,553.09s-12.72,37.6-28,48.12c0,0,16.11,7.52,29.68,0Z" transform="translate(-466.63 -48)"/><path class="cls-2" d="M901.58,553.09s12.72,37.6,28,48.12c0,0-16.11,7.52-29.68,0Z" transform="translate(-466.63 -48)"/><path class="cls-2" d="M902.5,561.48s-14.42,42.6-31.72,54.53c0,0,18.26,8.53,33.64,0Z" transform="translate(-466.63 -48)"/><path class="cls-2" d="M902.5,561.48s14.41,42.6,31.71,54.53c0,0-18.26,8.53-33.63,0Z" transform="translate(-466.63 -48)"/><path class="cls-2" d="M903.25,569.86S887,618,867.41,631.48c0,0,20.63,9.63,38,0Z" transform="translate(-466.63 -48)"/><path class="cls-2" d="M903.25,569.86s16.28,48.14,35.83,61.62c0,0-20.63,9.63-38,0Z" transform="translate(-466.63 -48)"/><path class="cls-2" d="M903.5,582.06s-18.45,54.52-40.58,69.79c0,0,23.36,10.9,43,0Z" transform="translate(-466.63 -48)"/><path class="cls-2" d="M903.5,582.06s18.45,54.52,40.58,69.79c0,0-23.36,10.9-43,0Z" transform="translate(-466.63 -48)"/><path class="cls-2" d="M862.92,651.82s40.45,16.77,80.9,0Z" transform="translate(-466.63 -48)"/><path class="cls-2" d="M741.28,520.31s-6.44,19.06-14.18,24.4c0,0,8.17,3.81,15,0Z" transform="translate(-466.63 -48)"/><path class="cls-2" d="M741.28,520.31s6.45,19.06,14.19,24.4c0,0-8.17,3.81-15.05,0Z" transform="translate(-466.63 -48)"/><path class="cls-2" d="M741.18,524.88s-8.55,25.27-18.81,32.35c0,0,10.83,5,20,0Z" transform="translate(-466.63 -48)"/><path class="cls-2" d="M741.18,524.88s8.55,25.27,18.81,32.35c0,0-10.83,5-20,0Z" transform="translate(-466.63 -48)"/><path class="cls-2" d="M741.15,533.27s-9.51,28.13-20.93,36c0,0,12,5.63,22.2,0Z" transform="translate(-466.63 -48)"/><path class="cls-2" d="M741.15,533.27s9.52,28.13,20.94,36c0,0-12.05,5.63-22.21,0Z" transform="translate(-466.63 -48)"/><path class="cls-2" d="M742.14,540.13s-11.23,33.21-24.72,42.51c0,0,14.24,6.64,26.22,0Z" transform="translate(-466.63 -48)"/><path class="cls-2" d="M742.14,540.13s11.24,33.21,24.73,42.51c0,0-14.24,6.64-26.22,0Z" transform="translate(-466.63 -48)"/><path class="cls-2" d="M741.47,549.28s-12.72,37.59-28,48.12c0,0,16.11,7.52,29.68,0Z" transform="translate(-466.63 -48)"/><path class="cls-2" d="M741.47,549.28s12.72,37.59,28,48.12c0,0-16.11,7.52-29.68,0Z" transform="translate(-466.63 -48)"/><path class="cls-2" d="M742.4,557.67S728,600.27,710.68,612.2c0,0,18.26,8.52,33.64,0Z" transform="translate(-466.63 -48)"/><path class="cls-2" d="M742.4,557.67s14.41,42.6,31.71,54.53c0,0-18.26,8.52-33.64,0Z" transform="translate(-466.63 -48)"/><path class="cls-2" d="M743.14,566.05s-16.28,48.14-35.83,61.62c0,0,20.63,9.63,38,0Z" transform="translate(-466.63 -48)"/><path class="cls-2" d="M743.14,566.05s16.29,48.14,35.84,61.62c0,0-20.63,9.63-38,0Z" transform="translate(-466.63 -48)"/><path class="cls-2" d="M743.4,578.25S725,632.77,702.81,648c0,0,23.37,10.91,43.05,0Z" transform="translate(-466.63 -48)"/><path class="cls-2" d="M743.4,578.25S761.84,632.77,784,648c0,0-23.37,10.91-43,0Z" transform="translate(-466.63 -48)"/><path class="cls-2" d="M702.81,648s40.46,16.77,80.91,0Z" transform="translate(-466.63 -48)"/><path class="cls-2" d="M704.8,558.43S699.87,573,694,577.1c0,0,6.25,2.91,11.51,0Z" transform="translate(-466.63 -48)"/><path class="cls-2" d="M704.8,558.43s4.94,14.58,10.86,18.67c0,0-6.25,2.91-11.51,0Z" transform="translate(-466.63 -48)"/><path class="cls-2" d="M704.72,561.93s-6.54,19.33-14.39,24.75c0,0,8.29,3.86,15.26,0Z" transform="translate(-466.63 -48)"/><path class="cls-2" d="M704.72,561.93s6.54,19.33,14.39,24.75c0,0-8.28,3.86-15.26,0Z" transform="translate(-466.63 -48)"/><path class="cls-2" d="M704.7,568.35s-7.28,21.52-16,27.54c0,0,9.23,4.31,17,0Z" transform="translate(-466.63 -48)"/><path class="cls-2" d="M704.7,568.35s7.29,21.52,16,27.54c0,0-9.22,4.31-17,0Z" transform="translate(-466.63 -48)"/><path class="cls-2" d="M705.46,573.6s-8.6,25.41-18.91,32.52c0,0,10.89,5.09,20.06,0Z" transform="translate(-466.63 -48)"/><path class="cls-2" d="M705.46,573.6s8.6,25.41,18.92,32.52c0,0-10.89,5.09-20.06,0Z" transform="translate(-466.63 -48)"/><path class="cls-2" d="M705,580.6s-9.73,28.76-21.41,36.82c0,0,12.33,5.75,22.71,0Z" transform="translate(-466.63 -48)"/><path class="cls-2" d="M705,580.6s9.73,28.76,21.41,36.82c0,0-12.33,5.75-22.71,0Z" transform="translate(-466.63 -48)"/><path class="cls-2" d="M705.66,587s-11,32.6-24.27,41.73c0,0,14,6.52,25.74,0Z" transform="translate(-466.63 -48)"/><path class="cls-2" d="M705.66,587s11,32.6,24.26,41.73c0,0-14,6.52-25.74,0Z" transform="translate(-466.63 -48)"/><path class="cls-2" d="M706.23,593.43s-12.47,36.84-27.42,47.15c0,0,15.78,7.37,29.08,0Z" transform="translate(-466.63 -48)"/><path class="cls-2" d="M706.23,593.43s12.46,36.84,27.42,47.15c0,0-15.79,7.37-29.08,0Z" transform="translate(-466.63 -48)"/><path class="cls-2" d="M706.42,602.76s-14.11,41.72-31,53.4c0,0,17.88,8.34,32.93,0Z" transform="translate(-466.63 -48)"/><path class="cls-2" d="M706.42,602.76s14.12,41.72,31.05,53.4c0,0-17.87,8.34-32.93,0Z" transform="translate(-466.63 -48)"/><path class="cls-2" d="M675.37,656.14s31,12.84,61.91,0Z" transform="translate(-466.63 -48)"/><path class="cls-2" d="M777.87,571.78s-4.15,12.25-9.12,15.68c0,0,5.25,2.46,9.67,0Z" transform="translate(-466.63 -48)"/><path class="cls-2" d="M777.87,571.78S782,584,787,587.46c0,0-5.25,2.46-9.67,0Z" transform="translate(-466.63 -48)"/><path class="cls-2" d="M777.8,574.72s-5.5,16.25-12.09,20.8c0,0,7,3.25,12.82,0Z" transform="translate(-466.63 -48)"/><path class="cls-2" d="M777.8,574.72s5.5,16.25,12.1,20.8c0,0-7,3.25-12.83,0Z" transform="translate(-466.63 -48)"/><path class="cls-2" d="M777.79,580.11s-6.12,18.09-13.47,23.15c0,0,7.76,3.62,14.28,0Z" transform="translate(-466.63 -48)"/><path class="cls-2" d="M777.79,580.11s6.12,18.09,13.46,23.15c0,0-7.75,3.62-14.28,0Z" transform="translate(-466.63 -48)"/><path class="cls-2" d="M778.42,584.52s-7.22,21.36-15.89,27.34c0,0,9.15,4.27,16.86,0Z" transform="translate(-466.63 -48)"/><path class="cls-2" d="M778.42,584.52s7.23,21.36,15.9,27.34c0,0-9.15,4.27-16.86,0Z" transform="translate(-466.63 -48)"/><path class="cls-2" d="M778,590.41s-8.18,24.17-18,30.94c0,0,10.36,4.83,19.08,0Z" transform="translate(-466.63 -48)"/><path class="cls-2" d="M778,590.41s8.18,24.17,18,30.94c0,0-10.36,4.83-19.09,0Z" transform="translate(-466.63 -48)"/><path class="cls-2" d="M778.59,595.8s-9.27,27.4-20.4,35.07c0,0,11.74,5.48,21.63,0Z" transform="translate(-466.63 -48)"/><path class="cls-2" d="M778.59,595.8s9.27,27.4,20.39,35.07c0,0-11.74,5.48-21.63,0Z" transform="translate(-466.63 -48)"/><path class="cls-2" d="M779.07,601.19s-10.48,31-23.05,39.63c0,0,13.27,6.19,24.44,0Z" transform="translate(-466.63 -48)"/><path class="cls-2" d="M779.07,601.19s10.47,31,23,39.63c0,0-13.27,6.19-24.44,0Z" transform="translate(-466.63 -48)"/><path class="cls-2" d="M779.23,609s-11.86,35.05-26.1,44.87c0,0,15,7,27.68,0Z" transform="translate(-466.63 -48)"/><path class="cls-2" d="M779.23,609s11.86,35.05,26.1,44.87c0,0-15,7-27.68,0Z" transform="translate(-466.63 -48)"/><path class="cls-2" d="M753.13,653.89s26,10.79,52,0Z" transform="translate(-466.63 -48)"/><path class="cls-2" d="M805.67,556.63S800.83,571,795,575c0,0,6.14,2.87,11.31,0Z" transform="translate(-466.63 -48)"/><path class="cls-2" d="M805.67,556.63S810.52,571,816.34,575c0,0-6.14,2.87-11.31,0Z" transform="translate(-466.63 -48)"/><path class="cls-2" d="M805.59,560.07s-6.42,19-14.13,24.3c0,0,8.14,3.8,15,0Z" transform="translate(-466.63 -48)"/><path class="cls-2" d="M805.59,560.07s6.43,19,14.14,24.3c0,0-8.14,3.8-15,0Z" transform="translate(-466.63 -48)"/><path class="cls-2" d="M805.58,566.37s-7.15,21.14-15.74,27c0,0,9.06,4.23,16.69,0Z" transform="translate(-466.63 -48)"/><path class="cls-2" d="M805.58,566.37s7.15,21.14,15.73,27c0,0-9.06,4.23-16.69,0Z" transform="translate(-466.63 -48)"/><path class="cls-2" d="M806.32,571.53s-8.44,25-18.58,31.94c0,0,10.7,5,19.71,0Z" transform="translate(-466.63 -48)"/><path class="cls-2" d="M806.32,571.53s8.44,25,18.58,31.94c0,0-10.7,5-19.71,0Z" transform="translate(-466.63 -48)"/><path class="cls-2" d="M805.82,578.4s-9.56,28.25-21,36.16c0,0,12.11,5.65,22.3,0Z" transform="translate(-466.63 -48)"/><path class="cls-2" d="M805.82,578.4s9.56,28.25,21,36.16c0,0-12.11,5.65-22.31,0Z" transform="translate(-466.63 -48)"/><path class="cls-2" d="M806.51,584.7s-10.83,32-23.83,41c0,0,13.72,6.41,25.27,0Z" transform="translate(-466.63 -48)"/><path class="cls-2" d="M806.51,584.7s10.83,32,23.83,41c0,0-13.72,6.41-25.27,0Z" transform="translate(-466.63 -48)"/><path class="cls-2" d="M807.07,591s-12.24,36.18-26.93,46.31c0,0,15.51,7.23,28.56,0Z" transform="translate(-466.63 -48)"/><path class="cls-2" d="M807.07,591s12.24,36.18,26.93,46.31c0,0-15.5,7.23-28.56,0Z" transform="translate(-466.63 -48)"/><path class="cls-2" d="M807.26,600.17s-13.86,41-30.49,52.44c0,0,17.55,8.19,32.34,0Z" transform="translate(-466.63 -48)"/><path class="cls-2" d="M807.26,600.17s13.86,41,30.5,52.44c0,0-17.56,8.19-32.35,0Z" transform="translate(-466.63 -48)"/><path class="cls-2" d="M776.77,652.59s30.39,12.61,60.79,0Z" transform="translate(-466.63 -48)"/><path class="cls-2" d="M920.27,608.27s-11.86,35.05-26.1,44.87c0,0,15,7,27.68,0Z" transform="translate(-466.63 -48)"/><path class="cls-2" d="M920.27,608.27s11.86,35.05,26.1,44.87c0,0-15,7-27.68,0Z" transform="translate(-466.63 -48)"/><path class="cls-2" d="M946.72,555.86s-4.85,14.32-10.67,18.33c0,0,6.14,2.87,11.31,0Z" transform="translate(-466.63 -48)"/><path class="cls-2" d="M946.72,555.86s4.84,14.32,10.66,18.33c0,0-6.14,2.87-11.31,0Z" transform="translate(-466.63 -48)"/><path class="cls-2" d="M946.64,559.3s-6.43,19-14.14,24.3c0,0,8.14,3.8,15,0Z" transform="translate(-466.63 -48)"/><path class="cls-2" d="M946.64,559.3s6.42,19,14.13,24.3c0,0-8.14,3.8-15,0Z" transform="translate(-466.63 -48)"/><path class="cls-2" d="M946.62,565.6s-7.15,21.14-15.73,27c0,0,9.05,4.23,16.68,0Z" transform="translate(-466.63 -48)"/><path class="cls-2" d="M946.62,565.6s7.15,21.14,15.73,27c0,0-9.06,4.23-16.69,0Z" transform="translate(-466.63 -48)"/><path class="cls-2" d="M947.36,570.76s-8.44,25-18.57,31.94c0,0,10.69,5,19.7,0Z" transform="translate(-466.63 -48)"/><path class="cls-2" d="M947.36,570.76s8.45,25,18.58,31.94c0,0-10.7,5-19.7,0Z" transform="translate(-466.63 -48)"/><path class="cls-2" d="M946.86,577.63s-9.56,28.25-21,36.16c0,0,12.11,5.65,22.3,0Z" transform="translate(-466.63 -48)"/><path class="cls-2" d="M946.86,577.63s9.56,28.25,21,36.16c0,0-12.11,5.65-22.31,0Z" transform="translate(-466.63 -48)"/><path class="cls-2" d="M947.55,583.93s-10.83,32-23.83,41c0,0,13.72,6.41,25.28,0Z" transform="translate(-466.63 -48)"/><path class="cls-2" d="M947.55,583.93s10.83,32,23.83,41c0,0-13.72,6.41-25.27,0Z" transform="translate(-466.63 -48)"/><path class="cls-2" d="M948.11,590.24s-12.24,36.17-26.92,46.3c0,0,15.5,7.23,28.56,0Z" transform="translate(-466.63 -48)"/><path class="cls-2" d="M948.11,590.24s12.24,36.17,26.93,46.3c0,0-15.5,7.23-28.56,0Z" transform="translate(-466.63 -48)"/><path class="cls-2" d="M948.3,599.4s-13.86,41-30.49,52.44c0,0,17.56,8.19,32.34,0Z" transform="translate(-466.63 -48)"/><path class="cls-2" d="M948.3,599.4s13.87,41,30.5,52.44c0,0-17.56,8.19-32.34,0Z" transform="translate(-466.63 -48)"/><path class="cls-2" d="M917.81,651.82s30.4,12.61,60.8,0Z" transform="translate(-466.63 -48)"/><path class="cls-2" d="M562.52,522.6S558,541.66,552.59,547c0,0,5.72,3.82,10.53,0Z" transform="translate(-466.63 -48)"/><path class="cls-2" d="M562.52,522.6S567,541.66,572.44,547c0,0-5.71,3.82-10.53,0Z" transform="translate(-466.63 -48)"/><path class="cls-2" d="M562.44,527.17s-6,25.27-13.15,32.34c0,0,7.57,5.06,14,0Z" transform="translate(-466.63 -48)"/><path class="cls-2" d="M562.44,527.17s6,25.27,13.16,32.34c0,0-7.58,5.06-14,0Z" transform="translate(-466.63 -48)"/><path class="cls-2" d="M562.42,535.56s-6.65,28.12-14.64,36c0,0,8.43,5.62,15.53,0Z" transform="translate(-466.63 -48)"/><path class="cls-2" d="M562.42,535.56s6.66,28.12,14.65,36c0,0-8.43,5.62-15.53,0Z" transform="translate(-466.63 -48)"/><path class="cls-2" d="M563.12,542.42s-7.86,33.21-17.29,42.51c0,0,9.95,6.64,18.34,0Z" transform="translate(-466.63 -48)"/><path class="cls-2" d="M563.12,542.42s7.86,33.21,17.29,42.51c0,0-10,6.64-18.34,0Z" transform="translate(-466.63 -48)"/><path class="cls-2" d="M562.65,551.57s-8.9,37.59-19.57,48.12c0,0,11.27,7.52,20.76,0Z" transform="translate(-466.63 -48)"/><path class="cls-2" d="M562.65,551.57s8.9,37.59,19.57,48.12c0,0-11.27,7.52-20.76,0Z" transform="translate(-466.63 -48)"/><path class="cls-2" d="M563.29,560s-10.08,42.61-22.18,54.54c0,0,12.77,8.52,23.53,0Z" transform="translate(-466.63 -48)"/><path class="cls-2" d="M563.29,560s10.09,42.61,22.19,54.54c0,0-12.78,8.52-23.53,0Z" transform="translate(-466.63 -48)"/><path class="cls-2" d="M563.82,568.34s-11.4,48.14-25.07,61.62c0,0,14.43,9.63,26.59,0Z" transform="translate(-466.63 -48)"/><path class="cls-2" d="M563.82,568.34s11.39,48.14,25.06,61.62c0,0-14.43,9.63-26.58,0Z" transform="translate(-466.63 -48)"/><path class="cls-2" d="M564,580.54s-12.9,54.52-28.38,69.78c0,0,16.34,10.9,30.1,0Z" transform="translate(-466.63 -48)"/><path class="cls-2" d="M564,580.54s12.91,54.52,28.39,69.78c0,0-16.34,10.9-30.11,0Z" transform="translate(-466.63 -48)"/><path class="cls-2" d="M535.61,650.3s28.29,16.77,56.59,0Z" transform="translate(-466.63 -48)"/><path class="cls-2" d="M1326.4,521.62s-6.45,19.06-14.19,24.4c0,0,8.17,3.81,15,0Z" transform="translate(-466.63 -48)"/><path class="cls-2" d="M1326.4,521.62s6.44,19.06,14.18,24.4c0,0-8.17,3.81-15,0Z" transform="translate(-466.63 -48)"/><path class="cls-2" d="M1326.29,526.2s-8.55,25.26-18.81,32.34c0,0,10.83,5.05,20,0Z" transform="translate(-466.63 -48)"/><path class="cls-2" d="M1326.29,526.2s8.55,25.26,18.81,32.34c0,0-10.83,5.05-19.95,0Z" transform="translate(-466.63 -48)"/><path class="cls-2" d="M1326.27,534.58s-9.52,28.13-20.94,36c0,0,12.05,5.63,22.2,0Z" transform="translate(-466.63 -48)"/><path class="cls-2" d="M1326.27,534.58s9.51,28.13,20.93,36c0,0-12,5.63-22.2,0Z" transform="translate(-466.63 -48)"/><path class="cls-2" d="M1327.26,541.44S1316,574.65,1302.53,584c0,0,14.24,6.65,26.22,0Z" transform="translate(-466.63 -48)"/><path class="cls-2" d="M1327.26,541.44S1338.49,574.65,1352,584c0,0-14.24,6.65-26.22,0Z" transform="translate(-466.63 -48)"/><path class="cls-2" d="M1326.59,550.59s-12.72,37.6-28,48.12c0,0,16.11,7.52,29.68,0Z" transform="translate(-466.63 -48)"/><path class="cls-2" d="M1326.59,550.59s12.72,37.6,28,48.12c0,0-16.11,7.52-29.68,0Z" transform="translate(-466.63 -48)"/><path class="cls-2" d="M1327.51,559s-14.42,42.6-31.72,54.53c0,0,18.26,8.53,33.64,0Z" transform="translate(-466.63 -48)"/><path class="cls-2" d="M1327.51,559s14.41,42.6,31.71,54.53c0,0-18.26,8.53-33.63,0Z" transform="translate(-466.63 -48)"/><path class="cls-2" d="M1328.26,567.37S1312,615.5,1292.42,629c0,0,20.63,9.63,38,0Z" transform="translate(-466.63 -48)"/><path class="cls-2" d="M1328.26,567.37s16.28,48.13,35.83,61.61c0,0-20.63,9.63-38,0Z" transform="translate(-466.63 -48)"/><path class="cls-2" d="M1328.51,579.56s-18.45,54.52-40.58,69.79c0,0,23.36,10.9,43,0Z" transform="translate(-466.63 -48)"/><path class="cls-2" d="M1328.51,579.56s18.45,54.52,40.58,69.79c0,0-23.36,10.9-43,0Z" transform="translate(-466.63 -48)"/><path class="cls-2" d="M1287.93,649.32s40.45,16.77,80.9,0Z" transform="translate(-466.63 -48)"/><path class="cls-2" d="M1376.14,549.83s-12.72,37.59-28,48.12c0,0,16.11,7.52,29.68,0Z" transform="translate(-466.63 -48)"/><path class="cls-2" d="M1376.14,549.83s12.72,37.59,28,48.12c0,0-16.12,7.52-29.68,0Z" transform="translate(-466.63 -48)"/><path class="cls-2" d="M1377.06,558.22s-14.41,42.6-31.71,54.53c0,0,18.26,8.52,33.64,0Z" transform="translate(-466.63 -48)"/><path class="cls-2" d="M1377.06,558.22s14.42,42.6,31.72,54.53c0,0-18.26,8.52-33.64,0Z" transform="translate(-466.63 -48)"/><path class="cls-2" d="M1377.81,566.6s-16.29,48.14-35.83,61.62c0,0,20.63,9.63,38,0Z" transform="translate(-466.63 -48)"/><path class="cls-2" d="M1377.81,566.6s16.29,48.14,35.83,61.62c0,0-20.63,9.63-38,0Z" transform="translate(-466.63 -48)"/><path class="cls-2" d="M1378.06,578.8s-18.44,54.52-40.58,69.78c0,0,23.37,10.91,43,0Z" transform="translate(-466.63 -48)"/><path class="cls-2" d="M1378.06,578.8s18.45,54.52,40.59,69.78c0,0-23.37,10.91-43.05,0Z" transform="translate(-466.63 -48)"/><path class="cls-2" d="M1337.48,648.56s40.45,16.77,80.91,0Z" transform="translate(-466.63 -48)"/><path class="cls-2" d="M637.36,518.78s-6.45,19.06-14.19,24.4c0,0,8.17,3.81,15.05,0Z" transform="translate(-466.63 -48)"/><path class="cls-2" d="M637.36,518.78s6.45,19.06,14.19,24.4c0,0-8.17,3.81-15,0Z" transform="translate(-466.63 -48)"/><path class="cls-2" d="M637.25,523.36s-8.55,25.27-18.81,32.34c0,0,10.83,5.06,19.95,0Z" transform="translate(-466.63 -48)"/><path class="cls-2" d="M637.25,523.36s8.55,25.27,18.81,32.34c0,0-10.83,5.06-19.95,0Z" transform="translate(-466.63 -48)"/><path class="cls-2" d="M637.23,531.75s-9.52,28.12-20.94,36c0,0,12.05,5.62,22.21,0Z" transform="translate(-466.63 -48)"/><path class="cls-2" d="M637.23,531.75s9.51,28.12,20.93,36c0,0-12,5.62-22.2,0Z" transform="translate(-466.63 -48)"/><path class="cls-2" d="M638.22,538.61S627,571.82,613.5,581.12c0,0,14.23,6.64,26.22,0Z" transform="translate(-466.63 -48)"/><path class="cls-2" d="M638.22,538.61s11.23,33.21,24.72,42.51c0,0-14.23,6.64-26.22,0Z" transform="translate(-466.63 -48)"/><path class="cls-2" d="M637.55,547.76s-12.72,37.59-28,48.12c0,0,16.12,7.51,29.68,0Z" transform="translate(-466.63 -48)"/><path class="cls-2" d="M637.55,547.76s12.72,37.59,28,48.12c0,0-16.11,7.51-29.68,0Z" transform="translate(-466.63 -48)"/><path class="cls-2" d="M638.47,556.14s-14.42,42.61-31.72,54.54c0,0,18.26,8.52,33.64,0Z" transform="translate(-466.63 -48)"/><path class="cls-2" d="M638.47,556.14s14.42,42.61,31.71,54.54c0,0-18.26,8.52-33.63,0Z" transform="translate(-466.63 -48)"/><path class="cls-2" d="M639.22,564.53s-16.29,48.14-35.84,61.62c0,0,20.63,9.62,38,0Z" transform="translate(-466.63 -48)"/><path class="cls-2" d="M639.22,564.53s16.28,48.14,35.83,61.62c0,0-20.63,9.62-38,0Z" transform="translate(-466.63 -48)"/><path class="cls-2" d="M639.47,576.73S621,631.24,598.89,646.51c0,0,23.36,10.9,43,0Z" transform="translate(-466.63 -48)"/><path class="cls-2" d="M639.47,576.73s18.45,54.51,40.58,69.78c0,0-23.36,10.9-43,0Z" transform="translate(-466.63 -48)"/><path class="cls-2" d="M598.89,646.49s40.45,16.77,80.9,0Z" transform="translate(-466.63 -48)"/><path class="cls-2" d="M600.88,556.9s-4.94,14.59-10.86,18.67c0,0,6.25,2.92,11.52,0Z" transform="translate(-466.63 -48)"/><path class="cls-2" d="M600.88,556.9s4.93,14.59,10.85,18.67c0,0-6.25,2.92-11.51,0Z" transform="translate(-466.63 -48)"/><path class="cls-2" d="M600.8,560.4s-6.55,19.34-14.4,24.75c0,0,8.29,3.87,15.27,0Z" transform="translate(-466.63 -48)"/><path class="cls-2" d="M600.8,560.4s6.54,19.34,14.39,24.75c0,0-8.29,3.87-15.27,0Z" transform="translate(-466.63 -48)"/><path class="cls-2" d="M600.78,566.82s-7.28,21.52-16,27.55c0,0,9.22,4.3,17,0Z" transform="translate(-466.63 -48)"/><path class="cls-2" d="M600.78,566.82s7.28,21.52,16,27.55c0,0-9.23,4.3-17,0Z" transform="translate(-466.63 -48)"/><path class="cls-2" d="M601.54,572.07s-8.6,25.41-18.92,32.53c0,0,10.89,5.08,20.06,0Z" transform="translate(-466.63 -48)"/><path class="cls-2" d="M601.54,572.07s8.59,25.41,18.91,32.53c0,0-10.89,5.08-20.06,0Z" transform="translate(-466.63 -48)"/><path class="cls-2" d="M601,579.07s-9.73,28.77-21.41,36.82c0,0,12.33,5.75,22.71,0Z" transform="translate(-466.63 -48)"/><path class="cls-2" d="M601,579.07s9.74,28.77,21.42,36.82c0,0-12.33,5.75-22.71,0Z" transform="translate(-466.63 -48)"/><path class="cls-2" d="M601.73,585.49s-11,32.6-24.27,41.73c0,0,14,6.52,25.74,0Z" transform="translate(-466.63 -48)"/><path class="cls-2" d="M601.73,585.49s11,32.6,24.27,41.73c0,0-14,6.52-25.74,0Z" transform="translate(-466.63 -48)"/><path class="cls-2" d="M602.3,591.91s-12.46,36.83-27.42,47.14c0,0,15.79,7.37,29.08,0Z" transform="translate(-466.63 -48)"/><path class="cls-2" d="M602.3,591.91s12.46,36.83,27.42,47.14c0,0-15.79,7.37-29.08,0Z" transform="translate(-466.63 -48)"/><path class="cls-2" d="M602.49,601.24s-14.11,41.72-31,53.4c0,0,17.88,8.34,32.94,0Z" transform="translate(-466.63 -48)"/><path class="cls-2" d="M602.49,601.24s14.12,41.72,31.06,53.4c0,0-17.88,8.34-32.94,0Z" transform="translate(-466.63 -48)"/><path class="cls-2" d="M571.44,654.62s31,12.83,61.91,0Z" transform="translate(-466.63 -48)"/><path class="cls-2" d="M1252.44,568.51s-4.15,12.26-9.13,15.69c0,0,5.26,2.45,9.68,0Z" transform="translate(-466.63 -48)"/><path class="cls-2" d="M1252.44,568.51s4.14,12.26,9.12,15.69c0,0-5.25,2.45-9.68,0Z" transform="translate(-466.63 -48)"/><path class="cls-2" d="M1252.37,571.46s-5.5,16.24-12.1,20.79c0,0,7,3.25,12.83,0Z" transform="translate(-466.63 -48)"/><path class="cls-2" d="M1252.37,571.46s5.49,16.24,12.09,20.79c0,0-7,3.25-12.83,0Z" transform="translate(-466.63 -48)"/><path class="cls-2" d="M1252.35,576.85s-6.12,18.08-13.46,23.15c0,0,7.75,3.62,14.28,0Z" transform="translate(-466.63 -48)"/><path class="cls-2" d="M1252.35,576.85s6.12,18.08,13.47,23.15c0,0-7.76,3.62-14.28,0Z" transform="translate(-466.63 -48)"/><path class="cls-2" d="M1253,581.26s-7.23,21.36-15.9,27.34c0,0,9.15,4.27,16.86,0Z" transform="translate(-466.63 -48)"/><path class="cls-2" d="M1253,581.26s7.22,21.36,15.9,27.34c0,0-9.16,4.27-16.86,0Z" transform="translate(-466.63 -48)"/><path class="cls-2" d="M1252.56,587.14s-8.18,24.18-18,31c0,0,10.36,4.83,19.09,0Z" transform="translate(-466.63 -48)"/><path class="cls-2" d="M1252.56,587.14s8.18,24.18,18,31c0,0-10.36,4.83-19.08,0Z" transform="translate(-466.63 -48)"/><path class="cls-2" d="M1253.15,592.54s-9.27,27.39-20.39,35.07c0,0,11.74,5.48,21.63,0Z" transform="translate(-466.63 -48)"/><path class="cls-2" d="M1253.15,592.54s9.27,27.39,20.4,35.07c0,0-11.75,5.48-21.64,0Z" transform="translate(-466.63 -48)"/><path class="cls-2" d="M1253.63,597.93s-10.47,31-23,39.62c0,0,13.27,6.19,24.44,0Z" transform="translate(-466.63 -48)"/><path class="cls-2" d="M1253.63,597.93s10.48,31,23,39.62c0,0-13.27,6.19-24.44,0Z" transform="translate(-466.63 -48)"/><path class="cls-2" d="M1253.79,605.77s-11.86,35.06-26.09,44.88c0,0,15,7,27.68,0Z" transform="translate(-466.63 -48)"/><path class="cls-2" d="M1253.79,605.77s11.87,35.06,26.1,44.88c0,0-15,7-27.68,0Z" transform="translate(-466.63 -48)"/><path class="cls-2" d="M1227.7,650.63s26,10.79,52,0Z" transform="translate(-466.63 -48)"/><path class="cls-2" d="M1280.24,553.37s-4.85,14.32-10.66,18.33c0,0,6.14,2.87,11.31,0Z" transform="translate(-466.63 -48)"/><path class="cls-2" d="M1280.24,553.37s4.85,14.32,10.66,18.33c0,0-6.14,2.87-11.31,0Z" transform="translate(-466.63 -48)"/><path class="cls-2" d="M1280.16,556.81s-6.43,19-14.14,24.3c0,0,8.14,3.8,15,0Z" transform="translate(-466.63 -48)"/><path class="cls-2" d="M1280.16,556.81s6.42,19,14.13,24.3c0,0-8.13,3.8-15,0Z" transform="translate(-466.63 -48)"/><path class="cls-2" d="M1280.14,563.11s-7.15,21.13-15.73,27c0,0,9.06,4.23,16.69,0Z" transform="translate(-466.63 -48)"/><path class="cls-2" d="M1280.14,563.11s7.15,21.13,15.73,27c0,0-9,4.23-16.68,0Z" transform="translate(-466.63 -48)"/><path class="cls-2" d="M1280.89,568.26s-8.45,25-18.58,32c0,0,10.69,5,19.7,0Z" transform="translate(-466.63 -48)"/><path class="cls-2" d="M1280.89,568.26s8.44,25,18.57,32c0,0-10.69,5-19.7,0Z" transform="translate(-466.63 -48)"/><path class="cls-2" d="M1280.38,575.14s-9.56,28.25-21,36.16c0,0,12.11,5.65,22.31,0Z" transform="translate(-466.63 -48)"/><path class="cls-2" d="M1280.38,575.14s9.56,28.25,21,36.16c0,0-12.11,5.65-22.3,0Z" transform="translate(-466.63 -48)"/><path class="cls-2" d="M1281.08,581.44s-10.84,32-23.84,41c0,0,13.72,6.4,25.28,0Z" transform="translate(-466.63 -48)"/><path class="cls-2" d="M1281.08,581.44s10.83,32,23.83,41c0,0-13.72,6.4-25.28,0Z" transform="translate(-466.63 -48)"/><path class="cls-2" d="M1281.64,587.74s-12.24,36.18-26.93,46.31c0,0,15.5,7.23,28.56,0Z" transform="translate(-466.63 -48)"/><path class="cls-2" d="M1281.64,587.74s12.24,36.18,26.92,46.31c0,0-15.5,7.23-28.56,0Z" transform="translate(-466.63 -48)"/><path class="cls-2" d="M1281.83,596.91s-13.86,41-30.5,52.44c0,0,17.56,8.19,32.35,0Z" transform="translate(-466.63 -48)"/><path class="cls-2" d="M1281.83,596.91s13.86,41,30.49,52.44c0,0-17.55,8.19-32.34,0Z" transform="translate(-466.63 -48)"/><path class="cls-2" d="M1251.33,649.33s30.4,12.6,60.8,0Z" transform="translate(-466.63 -48)"/><path class="cls-2" d="M533.91,570.76s-8.45,25-18.58,31.94c0,0,10.69,5,19.7,0Z" transform="translate(-466.63 -48)"/><path class="cls-2" d="M533.91,570.76s8.44,25,18.57,31.94c0,0-10.69,5-19.7,0Z" transform="translate(-466.63 -48)"/><path class="cls-2" d="M533.4,577.63s-9.56,28.25-21,36.16c0,0,12.11,5.65,22.31,0Z" transform="translate(-466.63 -48)"/><path class="cls-2" d="M533.4,577.63s9.56,28.25,21,36.16c0,0-12.11,5.65-22.3,0Z" transform="translate(-466.63 -48)"/><path class="cls-2" d="M534.1,583.93s-10.84,32-23.84,41c0,0,13.72,6.41,25.28,0Z" transform="translate(-466.63 -48)"/><path class="cls-2" d="M534.1,583.93s10.83,32,23.83,41c0,0-13.72,6.41-25.28,0Z" transform="translate(-466.63 -48)"/><path class="cls-2" d="M534.66,590.24s-12.24,36.17-26.93,46.3c0,0,15.5,7.23,28.56,0Z" transform="translate(-466.63 -48)"/><path class="cls-2" d="M534.66,590.24s12.24,36.17,26.92,46.3c0,0-15.5,7.23-28.56,0Z" transform="translate(-466.63 -48)"/><path class="cls-2" d="M534.85,599.4s-13.86,41-30.5,52.44c0,0,17.56,8.19,32.35,0Z" transform="translate(-466.63 -48)"/><path class="cls-2" d="M534.85,599.4s13.86,41,30.49,52.44c0,0-17.56,8.19-32.34,0Z" transform="translate(-466.63 -48)"/><path class="cls-2" d="M504.35,651.82s30.4,12.61,60.8,0Z" transform="translate(-466.63 -48)"/><path class="cls-2" d="M504.85,652.55s55.59,140.71,394.34,62.54c0,0,234.53,128.55,347.45,13.9,0,0,107.7,81.65,206.73-79.91Z" transform="translate(-466.63 -48)"/><path class="cls-2" d="M504.35,659.28s45.66,286.86,400.06,240c0,0,469,104.24,549-250.15Z" transform="translate(-466.63 -48)"/><rect class="cls-2" y="611.5" width="1078.81" height="394.35"/></g><text class="cls-8" transform="translate(279.98 718.95)">GO</text><text class="cls-9" transform="translate(287.07 852.71)"><tspan class="cls-10">T</tspan><tspan x="67.05" y="0">rip</tspan></text><text class="cls-11" transform="translate(516.65 853.34)">&amp;</text></svg>